#!OML:ASF H:\ManfredETheater\Project 1\Capture day 1\Session 1\subject.ASF
:FULLY-SPECIFIED
:DEGREES
661
root 4.40075 18.1219 -4.88447 -4.13313 14.7 -2.96133
lowerback 11.1931 -3.34918 -11.5511
upperback 0.0128064 -5.94261 -0.0569306
thorax -5.10856 -2.63153 7.28303
lowerneck -12.9335 -3.63102 -3.53713
upperneck 23.3634 -5.92718 6.49943
head 9.84241 -2.35196 2.12947
rclavicle -4.92862e-014 -1.27222e-014
rhumerus -44.2938 -7.56359 -22.9635
rradius 53.8542
rwrist -4.38949
rhand -17.5562 -12.0222
rfingers 7.12502
rthumb 8.69866 -41.8229
lclavicle -4.92862e-014 -1.27222e-014
lhumerus -23.7089 5.41932 73.5037
lradius 58.0559
lwrist -9.23998
lhand -25.2899 1.90683
lfingers 7.12502
lthumb 1.23159 31.883
rfemur -63.2947 -20.0427 11.8881
rtibia 56.583
rfoot 7.71455 3.24572
rtoes 1.879
lfemur -4.22518 0.12341 -24.0272
ltibia 28.5622
lfoot -14.2298 -7.93908
ltoes 16.1085
662
root 4.40782 18.132 -4.88988 -4.26497 14.5973 -2.92443
lowerback 11.2703 -3.33679 -11.4754
upperback 0.0750688 -5.92139 -0.045361
thorax -5.09503 -2.62639 7.25487
lowerneck -12.9604 -3.60701 -3.51385
upperneck 23.2854 -5.87348 6.4234
head 9.8133 -2.33412 2.10466
rclavicle 2.11457e-014 1.59028e-015
rhumerus -44.2751 -7.66471 -22.9333
rradius 53.7785
rwrist -4.45311
rhand -17.6719 -12.0451
rfingers 7.12502
rthumb 8.58696 -41.8505
lclavicle 2.11457e-014 1.59028e-015
lhumerus -23.6959 5.21875 73.7931
lradius 58.1754
lwrist -9.25423
lhand -25.259 1.88579
lfingers 7.12502
lthumb 1.26144 31.8618
rfemur -62.9237 -19.5952 11.2628
rtibia 53.0219
rfoot 6.82076 2.14249
rtoes 1.49502
lfemur -3.78109 0.0113783 -24.1409
ltibia 27.9932
lfoot -14.0438 -7.66544
ltoes 16.1774
663
root 4.41465 18.1426 -4.895 -4.38576 14.4859 -2.87952
lowerback 11.3396 -3.32034 -11.4116
upperback 0.12928 -5.8957 -0.0318272
thorax -5.08524 -2.61812 7.23455
lowerneck -12.9849 -3.58424 -3.49226
upperneck 23.216 -5.82118 6.34461
head 9.78692 -2.31727 2.07914
rclavicle 5.6138e-014 2.70347e-014
rhumerus -44.2601 -7.75246 -22.9172
rradius 53.7092
rwrist -4.50771
rhand -17.7729 -12.0568
rfingers 7.12502
rthumb 8.48946 -41.8662
lclavicle 5.6138e-014 2.70347e-014
lhumerus -23.7121 5.04571 74.0682
lradius 58.2833
lwrist -9.28062
lhand -25.219 1.858
lfingers 7.12502
lthumb 1.30007 31.8338
rfemur -62.5082 -19.1241 10.5872
rtibia 49.4513
rfoot 5.88363 0.958612
rtoes 1.03719
lfemur -3.34264 -0.0809656 -24.2567
ltibia 27.4136
lfoot -13.8379 -7.41268
ltoes 16.2479
664
root 4.4209 18.1538 -4.89988 -4.49405 14.3755 -2.82873
lowerback 11.4039 -3.30274 -11.3612
upperback 0.173387 -5.87013 -0.0155982
thorax -5.08193 -2.60868 7.22464
lowerneck -13.0085 -3.56285 -3.47093
upperneck 23.1599 -5.77089 6.26228
head 9.76518 -2.30155 2.05233
rclavicle 4.03812e-014 -1.59028e-015
rhumerus -44.2474 -7.8282 -22.9147
rradius 53.6416
rwrist -4.54774
rhand -17.8539 -12.0571
rfingers 7.12502
rthumb 8.41138 -41.8696
lclavicle 4.03812e-014 -1.59028e-015
lhumerus -23.7614 4.89886 74.3282
lradius 58.3822
lwrist -9.30833
lhand -25.1782 1.82958
lfingers 7.12502
lthumb 1.33943 31.8051
rfemur -62.0545 -18.6329 9.85895
rtibia 45.8977
rfoot 4.89455 -0.321558
rtoes 0.5106
lfemur -2.91823 -0.158 -24.37
ltibia 26.8324
lfoot -13.6127 -7.19094
ltoes 16.3138
665
root 4.42636 18.1653 -4.90451 -4.58935 14.2743 -2.77477
lowerback 11.4651 -3.2868 -11.3228
upperback 0.206449 -5.84853 0.00353914
thorax -5.08653 -2.59988 7.22518
lowerneck -13.0324 -3.54302 -3.44904
upperneck 23.1198 -5.72324 6.17654
head 9.74932 -2.2871 2.02406
rclavicle 3.88313e-014 3.18055e-015
rhumerus -44.237 -7.89433 -22.9255
rradius 53.5727
rwrist -4.57046
rhand -17.912 -12.0455
rfingers 7.12502
rthumb 8.35524 -41.8603
lclavicle 3.88313e-014 3.18055e-015
lhumerus -23.8456 4.77657 74.5716
lradius 58.4745
lwrist -9.3278
lhand -25.1436 1.80684
lfingers 7.12502
lthumb 1.37287 31.7822
rfemur -61.5686 -18.1244 9.07533
rtibia 42.3901
rfoot 3.84219 -1.71365
rtoes -0.0863259
lfemur -2.51478 -0.225596 -24.4778
ltibia 26.2588
lfoot -13.3727 -7.00278
ltoes 16.3692
666
root 4.43094 18.177 -4.90888 -4.67295 14.1883 -2.72107
lowerback 11.5243 -3.27463 -11.2916
upperback 0.22909 -5.83325 0.0253456
thorax -5.099 -2.59301 7.23376
lowerneck -13.0585 -3.52505 -3.426
upperneck 23.097 -5.67889 6.0878
head 9.74008 -2.27408 1.99425
rclavicle 2.54196e-014 -3.18055e-015
rhumerus -44.2298 -7.95451 -22.9492
rradius 53.5014
rwrist -4.57532
rhand -17.9469 -12.0233
rfingers 7.12502
rthumb 8.32156 -41.8394
lclavicle 2.54196e-014 -3.18055e-015
lhumerus -23.9642 4.67706 74.797
lradius 58.5617
lwrist -9.33205
lhand -25.1195 1.7938
lfingers 7.12502
lthumb 1.39615 31.769
rfemur -61.0556 -17.5992 8.23332
rtibia 38.9597
rfoot 2.71349 -3.22944
rtoes -0.769184
lfemur -2.13627 -0.289386 -24.5778
ltibia 25.7018
lfoot -13.1251 -6.84373
ltoes 16.4096
